<svg width="21" height="20" viewBox="0 0 21 20" fill="none" xmlns="http://www.w3.org/2000/svg">
<path d="M19.875 16.75L18.8332 17.8897C18.2807 18.4939 17.5314 18.8334 16.7501 18.8334C15.9689 18.8334 15.2196 18.4939 14.6671 17.8897C14.1138 17.2866 13.3646 16.948 12.5835 16.948C11.8025 16.948 11.0533 17.2866 10.5 17.8897M1.125 18.8334H2.86932C3.37888 18.8334 3.63366 18.8334 3.87343 18.7758C4.086 18.7248 4.28922 18.6406 4.47562 18.5264C4.68586 18.3975 4.86602 18.2174 5.22634 17.8571L18.3125 4.77087C19.1755 3.90792 19.1755 2.50881 18.3125 1.64587C17.4496 0.782921 16.0505 0.782922 15.1875 1.64587L2.10131 14.7321C1.741 15.0924 1.56084 15.2725 1.432 15.4828C1.31777 15.6692 1.2336 15.8724 1.18256 16.085C1.125 16.3247 1.125 16.5795 1.125 17.0891V18.8334Z" stroke="#10838B" stroke-width="1.5" stroke-linecap="round" stroke-linejoin="round"/>
</svg>
